<?xml version="1.0" standalone="no"?><!-- Generator: Gravit.io -->
<svg xmlns="http://www.w3.org/2000/svg" xmlns:xlink="http://www.w3.org/1999/xlink" style="isolation:isolate" viewBox="0 0 310 285" width="200" height="285">
<defs>
	<clipPath id="_clipPath_eEEnlTut8rZyQ2RuOnyb0ABU1C20DQmH"><rect width="310" height="285"/></clipPath>
</defs>
<g clip-path="url(#_clipPath_eEEnlTut8rZyQ2RuOnyb0ABU1C20DQmH)">
	<path d=" M 98.268 43.27 L 18.503 43.27 L 18.503 159.697 L 291.497 159.697 L 291.497 43.27 L 211.732 43.27 L 211.732 0 L 98.268 0 L 98.268 43.27 Z " fill-rule="evenodd" fill="rgb(247,167,23)"/>
	<path d=" M 210.706 101.484 L 244.102 101.484 L 244.102 132.774 L 291.497 132.774 L 291.497 285 L 18.503 285 L 18.503 132.774 L 65.898 132.774 L 65.898 101.484 L 99.294 101.484 L 99.294 71.039 L 210.706 71.039 L 210.706 101.484 Z " fill-rule="evenodd" fill="rgb(251,193,13)"/>
    <path d=" M 4 61.806 L 18.503 61.806 L 18.503 141.162 L 4 141.162 L 4 61.806 L 4 61.806 L 4 61.806 Z  M 291.497 61.806 L 306 61.806 L 306 141.162 L 291.497 141.162 L 291.497 61.806 L 291.497 61.806 L 291.497 61.806 Z  M 4 184.502 L 18.503 184.502 L 18.503 263.858 L 4 263.858 L 4 184.502 L 4 184.502 Z  M 291.497 184.502 L 306 184.502 L 306 263.858 L 291.497 263.858 L 291.497 184.502 Z " fill-rule="evenodd" fill="rgb(102,102,100)"/></g>
</svg>