<?xml version="1.0" ?><!DOCTYPE svg  PUBLIC '-//W3C//DTD SVG 1.1//EN'  'http://www.w3.org/Graphics/SVG/1.1/DTD/svg11.dtd'><svg enable-background="new 0 0 91 91" height="50px" id="Layer_1" version="1.1" viewBox="0 0 91 91" width="50px" xml:space="preserve" xmlns="http://www.w3.org/2000/svg" xmlns:xlink="http://www.w3.org/1999/xlink"><g><path d="M3.129,37.489c0.232-0.025,0.464-0.056,0.696-0.083c-0.322,3.046-0.497,6.112-0.635,9.167   c-0.207,4.568-0.918,9.483-0.544,14.041c0.335,4.092,3.747,4.41,7.115,4.447c2.284,0.025,12.132,0.362,12.779,0.691   c1.106,0.563,2.187,1.075,3.313,1.449C23.062,69.839,10.296,81.29,7.569,84.979c-0.642,0.869,0.571,1.839,1.392,1.392   c3.873-2.106,17.626-14.275,21.036-17.349c6.954-6.264,13.819-12.627,20.596-19.086c6.635-6.326,35.116-35.833,39.387-39.995   c2.512-2.446-1.618-6.418-3.792-3.791c-3.252,3.935-6.759,7.702-10.324,11.409c-6.313-4.953-14.68-8.346-22.657-8.883   c-1.656-0.11-2.087,2.197-0.81,2.987c2.887,1.785,6.276,2.812,9.291,4.374c3.405,1.764,6.654,3.781,9.467,6.375   c-1.386,1.418-5.974,6.139-6.892,7.083c-3.22-2.117-6.867-3.186-10.709-3.447c-1.84-0.124-2.089,2.27-0.857,3.163   c2.311,1.672,4.775,3.143,6.886,5.062c-4.082,4.137-12.935,12.937-13.241,13.24c-0.285-8.118-0.5-16.232-0.69-24.356   c-0.037-1.592,0.39-4.489-0.875-5.748c-1.381-1.375-3.009-0.444-4.359,0.357c-4.592,2.728-8.932,5.876-13.311,8.931   c-2.165,1.511-4.299,3.051-6.414,4.631c-0.007,0.003-0.01,0.008-0.015,0.012c-0.628-0.842-1.613-1.391-3.193-1.416   c-4.719-0.082-9.635,0.757-14.354,1.042C-1.101,31.219-0.984,37.955,3.129,37.489z M40.649,23.29   c0.001,2.311-0.539,29.826-0.403,30.186c-3.813,3.701-7.652,7.372-11.522,11.013c-1.33-1.505-5.927-5.013-6.613-5.487   c0.037-2.5-0.317-23.764-0.452-24.812C21.901,34.047,40.256,23.525,40.649,23.29z M16.025,36.008   c0.234,2.202,0.038,22.078,0.28,23.361c-1.247-0.243-8.461,0.086-8.541,0.079C7.728,58.82,6.838,41.206,6.418,37.098   C7.891,36.923,15.368,36.069,16.025,36.008z"/><path d="M42.007,77.86c1.626,0.974,3.886-0.27,3.832-2.2c-0.118-4.134-0.395-8.206-1.401-12.231c-0.285-1.133-2.012-1.135-2.295,0   c-0.613,2.458-0.93,4.922-1.126,7.406c-0.723-0.556-1.445-1.111-2.163-1.687c-3.845-3.08-7.913,3.173-3.913,5.071   C37.345,75.361,39.722,76.488,42.007,77.86z"/><path d="M63.979,55.193c-2.527,3.035-5.951,5.521-9.677,6.867c-4.645,1.681-1.963,8.35,2.66,6.309   c5.197-2.294,10.165-6.407,12.764-11.515c2.162-4.25,4.557-15.534-1.522-17.773c-0.689-0.254-1.211,0.388-1.287,0.981   c-0.188,1.502,0.485,6.893,0.286,8.168C66.797,50.808,65.64,53.196,63.979,55.193z"/><path d="M87.623,45.542c-0.295-4.072-0.903-8.18-2.271-12.041c-0.928-2.622-2.221-6.478-5.121-7.399   c-0.587-0.187-1.345,0.332-1.285,0.98c0.259,2.843,2.234,5.521,2.881,8.37c0.817,3.589,1.083,7.369,1.079,11.046   c-0.005,5.904-1.912,11.446-5.244,16.295c-5.414,7.87-14.275,14.292-23.626,16.487c-4.313,1.012-2.477,7.81,1.835,6.656   C66.99,82.959,77.618,74.736,83.268,64.73C86.584,58.857,88.112,52.271,87.623,45.542z"/></g></svg>