<svg xmlns="http://www.w3.org/2000/svg" xmlns:xlink="http://www.w3.org/1999/xlink" style="isolation:isolate" viewBox="0 0 500 500" width="35" height="35"><defs><clipPath id="_clipPath_ndNRRbnpJXTsplK1BXFFVzdTmhNZqYjQ"><rect width="35" height="35"/></clipPath></defs> <g clip-path="url(#_clipPath_ndNRRbnpJXTsplK1BXFFVzdTmhNZqYjQ)" ><path d="M 190.707 143.068 L 326.225 143.068 C 351.156 143.068 371.397 163.31 371.397 188.241 L 371.397 324.745 C 371.397 349.677 351.156 369.918 326.225 369.918 L 190.707 369.918 C 165.775 369.918 145.534 349.677 145.534 324.745 L 145.534 188.241 C 145.534 163.31 165.775 143.068 190.707 143.068 Z"  style="fill:#c594c0;stroke:#c594c0;  stroke-width:10;stroke-linecap:square;stroke-miterlimit:3;" fill="#c594c0"/><path d=" M 353.618 53.944 L 234.163 53.944 L 276.899 11.208 L 269.69 4 L 214.082 59.093 L 269.175 114.187 L 276.384 106.978 L 234.163 64.242 L 353.618 64.242 C 393.264 64.242 425.702 96.68 425.702 136.327 L 425.702 229.007 L 436 229.007 L 436 136.327 C 436 91.016 398.928 53.944 353.618 53.944 Z " fill="#c594c0"/><path d=" M 158.382 459.042 L 277.837 459.042 L 235.101 501.778 L 242.31 508.986 L 297.918 453.893 L 242.825 398.8 L 235.616 406.008 L 277.837 448.744 L 158.382 448.744 C 118.736 448.744 86.298 416.306 86.298 376.659 L 86.298 283.979 L 76 283.979 L 76 376.659 C 76 421.97 113.072 459.042 158.382 459.042 Z " fill="#c594c0"/></g></svg>
