<?xml version="1.0" ?><svg height="50px" version="1.1" viewBox="0 0 60 60" width="50px" xmlns="http://www.w3.org/2000/svg" xmlns:xlink="http://www.w3.org/1999/xlink"><title/><desc/><defs/><g fill="#33cccc" fill-rule="evenodd" id="Page-1" stroke="none" stroke-linecap="round" stroke-linejoin="round" stroke-width="1"><g id="014---Volume" stroke="#ffffff" stroke-width="2" transform="translate(1.000000, 1.000000)"><ellipse cx="29" cy="29" id="Oval" rx="29" ry="28.875"/><ellipse cx="29" cy="29" id="Oval" rx="25" ry="24.875"/><path d="M16,25 L20,25 L20,33 L16,33 C14.8954305,33 14,32.1045695 14,31 L14,27 C14,25.8954305 14.8954305,25 16,25 Z" id="Shape"/><path d="M20,29 L20,25 L29.78058,17.47648 C30.3845113,17.0119184 31.1999413,16.9308669 31.8835048,17.2674551 C32.5670682,17.6040434 33.0000003,18.2997913 33,19.06173 L33,29" id="Shape"/><path d="M33,29 L33,38.93827 C33.0000003,39.7002087 32.5670682,40.3959566 31.8835048,40.7325449 C31.1999413,41.0691331 30.3845113,40.9880816 29.78058,40.52352 L20,33 L20,29" id="Shape"/><path d="M37,22 C41.418278,22 45,25.581722 45,30 C45,34.418278 41.418278,38 37,38" id="Shape"/><path d="M37,26 C39.209139,26 41,27.790861 41,30 C41,32.209139 39.209139,34 37,34" id="Shape"/></g></g></svg>